<svg xmlns="http://www.w3.org/2000/svg" viewBox="0 0 64 64">
  <defs>
    <linearGradient id="tf-pine" x1="0" y1="0" x2="0" y2="1">
      <stop offset="0" stop-color="#2a8a5a"/>
      <stop offset="1" stop-color="#0d3b28"/>
    </linearGradient>
    <linearGradient id="tf-lant" x1="0" y1="0" x2="0" y2="1">
      <stop offset="0" stop-color="#fff6ec"/>
      <stop offset="1" stop-color="#ffb844"/>
    </linearGradient>
    <radialGradient id="tf-lglow" cx=".5" cy=".5" r=".5">
      <stop offset="0" stop-color="#ffd76a" stop-opacity=".55"/>
      <stop offset="1" stop-color="#ffd76a" stop-opacity="0"/>
    </radialGradient>
    <filter id="tf-soft" x="-40%" y="-40%" width="180%" height="180%">
      <feDropShadow dx="0" dy="1" stdDeviation="1.2" flood-color="#0a0f1e" flood-opacity=".45"/>
    </filter>
  </defs>
  <rect x="7" y="51" width="50" height="5" rx="2.5" fill="#123a2a" opacity=".85"/>
  <g filter="url(#tf-soft)">
    <path d="M32 9L43 32H21Z" fill="url(#tf-pine)" stroke="url(#tf-pine)" stroke-width="4" stroke-linejoin="round" opacity=".85"/>
    <rect x="29.6" y="31" width="4.8" height="21" rx="2.2" fill="#5a3a22"/>
    <path d="M16 25L26 46H6Z" fill="url(#tf-pine)" stroke="url(#tf-pine)" stroke-width="4" stroke-linejoin="round"/>
    <rect x="13.7" y="45.5" width="4.6" height="8" rx="2.2" fill="#5a3a22"/>
    <path d="M48 21L58 46H38Z" fill="url(#tf-pine)" stroke="url(#tf-pine)" stroke-width="4" stroke-linejoin="round"/>
    <rect x="45.7" y="45.5" width="4.6" height="8" rx="2.2" fill="#5a3a22"/>
  </g>
  <circle cx="10" cy="18" r="1.1" fill="#7dffb8" opacity=".9"/>
  <circle cx="55" cy="12" r=".9" fill="#7dffb8" opacity=".8"/>
  <circle cx="26" cy="39.5" r="6.5" fill="url(#tf-lglow)"/>
  <path d="M26 31v5" stroke="#c9a86a" stroke-width="1.1"/>
  <rect x="24.4" y="34.8" width="3.2" height="1.6" rx=".8" fill="#6b4a2a"/>
  <rect x="23.4" y="36" width="5.2" height="7" rx="2" fill="url(#tf-lant)" stroke="#6b4a2a" stroke-width=".5" stroke-opacity=".5"/>
  <circle cx="26" cy="39.5" r="1.3" fill="#fff3c8"/>
</svg>
